<svg width="26" height="26" viewBox="0 0 26 26" fill="none" xmlns="http://www.w3.org/2000/svg">
<g id="vuesax/bold/tick-circle">
<g id="tick-circle">
<path id="Vector" d="M12.9992 2.33252C7.12185 2.33252 2.33252 7.12185 2.33252 12.9992C2.33252 18.8765 7.12185 23.6659 12.9992 23.6659C18.8765 23.6659 23.6659 18.8765 23.6659 12.9992C23.6659 7.12185 18.8765 2.33252 12.9992 2.33252ZM18.0979 10.5459L12.0499 16.5939C11.9005 16.7432 11.6979 16.8285 11.4845 16.8285C11.2712 16.8285 11.0685 16.7432 10.9192 16.5939L7.90052 13.5752C7.59119 13.2659 7.59119 12.7539 7.90052 12.4445C8.20985 12.1352 8.72185 12.1352 9.03119 12.4445L11.4845 14.8979L16.9672 9.41519C17.2765 9.10585 17.7885 9.10585 18.0979 9.41519C18.4072 9.72452 18.4072 10.2259 18.0979 10.5459Z" fill="#2C96FF"/>
</g>
</g>
</svg>
